<?xml version="1.0" encoding="UTF-8" standalone="no"?>
<!DOCTYPE svg PUBLIC "-//W3C//DTD SVG 1.1//EN" "http://www.w3.org/Graphics/SVG/1.1/DTD/svg11.dtd">
<svg width="100%" height="100%" viewBox="0 0 814 712" version="1.1" xmlns="http://www.w3.org/2000/svg" xmlns:xlink="http://www.w3.org/1999/xlink" xml:space="preserve" xmlns:serif="http://www.serif.com/" style="fill-rule:evenodd;clip-rule:evenodd;">
    <g transform="matrix(1,0,0,1,-93.2614,-47.2614)">
        <g transform="matrix(1.1055,0,0,1.10559,-52.7514,16.7205)">
            <path d="M418.578,648.5l-264.122,0l132.061,-228.736l25.186,43.624l-81.689,141.49l163.379,0l25.185,43.622Z" style="fill:rgb(254,249,227);"/>
            <clipPath id="_clip1">
                <path d="M418.578,648.5l-264.122,0l132.061,-228.736l25.186,43.624l-81.689,141.49l163.379,0l25.185,43.622Z"/>
            </clipPath>
            <g clip-path="url(#_clip1)">
                <path d="M191.057,661.498l-27.201,-18.425c0,0 122.661,-212.455 122.661,-212.455l18.919,32.77c0,-0 -114.379,198.11 -114.379,198.11Z" style="fill:rgb(112,163,146);"/>
            </g>
            <path d="M418.578,648.5l-264.122,0l132.061,-228.736l25.186,43.624l-81.689,141.49l163.379,0l25.185,43.622Z" style="fill:none;stroke:rgb(38,24,52);stroke-width:10.85px;"/>
        </g>
        <g transform="matrix(1.1055,0,0,1.10559,-52.7514,16.7205)">
            <path d="M713.483,419.764l132.061,228.736l-264.122,0l25.185,-43.622l163.379,0l-81.689,-141.49l25.186,-43.624Z" style="fill:rgb(254,249,227);"/>
            <clipPath id="_clip2">
                <path d="M713.483,419.764l132.061,228.736l-264.122,0l25.185,-43.622l163.379,0l-81.689,-141.49l25.186,-43.624Z"/>
            </clipPath>
            <g clip-path="url(#_clip2)">
                <path d="M845.544,610.305l0,32.768l-254.722,0c0,0 18.919,-32.768 18.919,-32.768l235.803,0Z" style="fill:rgb(112,163,146);"/>
            </g>
            <path d="M713.483,419.764l132.061,228.736l-264.122,0l25.185,-43.622l163.379,0l-81.689,-141.49l25.186,-43.624Z" style="fill:none;stroke:rgb(38,24,52);stroke-width:10.85px;"/>
        </g>
        <g transform="matrix(1.1055,0,0,1.10559,-52.7514,16.7205)">
            <path d="M373.799,268.587l126.201,-218.587l126.201,218.587l-25.186,43.624l-101.015,-174.963l-101.015,174.963l-25.186,-43.624Z" style="fill:rgb(254,249,227);"/>
            <clipPath id="_clip3">
                <path d="M373.799,268.587l126.201,-218.587l126.201,218.587l-25.186,43.624l-101.015,-174.963l-101.015,174.963l-25.186,-43.624Z"/>
            </clipPath>
            <g clip-path="url(#_clip3)">
                <path id="Top" d="M477.36,87.181l0,-65.54l142.574,246.946l-18.919,32.769l-123.655,-214.175Z" style="fill:rgb(112,163,146);"/>
            </g>
            <path d="M373.799,268.587l126.201,-218.587l126.201,218.587l-25.186,43.624l-101.015,-174.963l-101.015,174.963l-25.186,-43.624Z" style="fill:none;stroke:rgb(38,24,52);stroke-width:10.85px;"/>
        </g>
    </g>
    <g transform="matrix(1,0,0,1,-93.2614,-126.279)">
        <g>
            <g transform="matrix(1,0,0,1,-10.3603,-1.57583)">
                <path d="M645.123,597.003c-3.291,-3.251 -6.183,-6.99 -8.561,-11.221c-24.561,-43.711 2.819,-97.089 44.633,-117.449c19.953,-9.715 41.246,-12.389 63.096,-9.419c18.133,2.464 35.59,12.848 48.638,25.28c-13.831,12.947 -24.52,29.109 -30.539,47.103c-2.07,6.188 -3.842,12.48 -5.684,18.724l-61.12,-0l-50.463,46.982Z" style="fill:rgb(112,163,146);"/>
                <clipPath id="_clip4">
                    <path d="M645.123,597.003c-3.291,-3.251 -6.183,-6.99 -8.561,-11.221c-24.561,-43.711 2.819,-97.089 44.633,-117.449c19.953,-9.715 41.246,-12.389 63.096,-9.419c18.133,2.464 35.59,12.848 48.638,25.28c-13.831,12.947 -24.52,29.109 -30.539,47.103c-2.07,6.188 -3.842,12.48 -5.684,18.724l-61.12,-0l-50.463,46.982Z"/>
                </clipPath>
                <g clip-path="url(#_clip4)">
                    <g transform="matrix(1,0,1.38778e-16,1,10.3603,1.57583)">
                        <path d="M630.449,563.374c-0.8,-17.666 2.106,-36.548 12.19,-51.495c24.145,-35.787 76.806,-53.669 115.114,-29.568c6.473,-0.622 17.889,0.532 22.502,-6.203c3.005,-4.386 -4.771,-11.051 -6.732,-13.094c-8.516,-8.873 -17.674,-20.192 -30.281,-23.678c-16.696,-4.617 -33.262,0.137 -49.485,4.384c-24.018,6.287 -54.745,12.615 -70.551,34.349c-4.827,6.637 -8.623,15.051 -11.078,22.838c-2.491,7.902 -4.472,16.888 -1.681,25.058c6.079,17.793 9.203,17.305 20.002,37.409Z" style="fill:rgb(254,249,227);"/>
                    </g>
                    <g transform="matrix(1,0,0,1,10.3603,1.57583)">
                        <path d="M667,563.374c-0.357,-15.624 1.177,-24.487 5.169,-32.52c4.416,-8.785 7.831,-14.854 18.831,-19.854c2.832,3.598 5.228,7.78 3.467,12.51c-1.221,3.28 -3.431,6.14 -4.587,9.443c-0.334,0.952 -0.779,2.911 0.225,3.019c1.602,0.173 2.86,-1.53 4.105,-2.553c2.31,-1.898 4.304,-4.152 6.51,-6.17c5.927,-5.423 11.679,-11.055 17.889,-16.152c18.341,-15.055 41.474,-26.167 65.636,-26.222c2.066,6.784 5.357,17.955 5.598,25.115c0.253,7.517 -2.001,14.869 -5.527,21.41c-1.827,3.39 -3.981,6.644 -6.531,9.53c-20.113,22.75 -51.026,5.444 -76.028,6.067c-15.692,0.391 -19.928,13.262 -34.757,16.377Z" style="fill:rgb(87,111,111);"/>
                    </g>
                </g>
                <path d="M645.123,597.003c-3.291,-3.251 -6.183,-6.99 -8.561,-11.221c-24.561,-43.711 2.819,-97.089 44.633,-117.449c19.953,-9.715 41.246,-12.389 63.096,-9.419c18.133,2.464 35.59,12.848 48.638,25.28c-13.831,12.947 -24.52,29.109 -30.539,47.103c-2.07,6.188 -3.842,12.48 -5.684,18.724l-61.12,-0l-50.463,46.982Z" style="fill:none;stroke:rgb(38,24,52);stroke-width:12px;stroke-linejoin:round;"/>
            </g>
            <g transform="matrix(1,0,0,1,-10.3603,-1.57583)">
                <path d="M756.706,550.021c-4.535,15.375 -9.496,30.454 -20.386,42.96c-22.242,25.544 -67.275,27.651 -91.197,4.022l50.463,-46.982l61.12,-0Z" style="fill:rgb(254,249,227);stroke:rgb(38,24,52);stroke-width:12px;stroke-linejoin:round;"/>
            </g>
            <g>
                <path d="M632,598l87,-81" style="fill:none;stroke:rgb(38,24,52);stroke-width:12px;stroke-linecap:round;stroke-linejoin:round;"/>
                <path d="M744.794,548.445l-60.893,-0l8.677,-31.969" style="fill:none;stroke:rgb(38,24,52);stroke-width:12px;stroke-linecap:round;stroke-linejoin:round;"/>
            </g>
            <path d="M620.196,598.764c-3.823,-6.803 -7.671,-13.602 -11.103,-20.61c-11.988,-24.48 -4.953,-47.359 2.517,-72.19c-16.262,20.068 -32.368,45.75 -26.818,72.876c1.919,9.378 5.234,17.144 10.012,25.404l-52.333,58.231l10.047,10.047l67.678,-73.758Z" style="fill:rgb(254,249,227);"/>
            <path d="M629.038,606.877l-67.678,73.758c-2.212,2.411 -5.313,3.814 -8.584,3.884c-3.271,0.071 -6.429,-1.198 -8.743,-3.512l-10.047,-10.047c-4.511,-4.511 -4.704,-11.762 -0.44,-16.506c-0,-0 46.718,-51.984 46.718,-51.984c-3.258,-6.719 -5.647,-13.497 -7.228,-21.225c-6.279,-30.687 10.854,-60.133 29.251,-82.836c3.61,-4.455 9.866,-5.734 14.934,-3.053c5.069,2.682 7.532,8.574 5.88,14.064c-6.57,21.842 -13.776,41.923 -3.231,63.456c3.333,6.805 7.075,13.404 10.787,20.009c2.542,4.524 1.889,10.169 -1.619,13.992Zm-8.842,-8.113c-3.823,-6.803 -7.671,-13.602 -11.103,-20.61c-11.988,-24.48 -4.953,-47.359 2.517,-72.19c-16.262,20.068 -32.368,45.75 -26.818,72.876c1.919,9.378 5.234,17.144 10.012,25.404l-52.333,58.231l10.047,10.047l67.678,-73.758Z" style="fill:rgb(38,24,52);"/>
            <g transform="matrix(0.985057,0.172226,-0.132096,0.755528,-83.9326,13.5565)">
                <path d="M783.686,644.659c5.411,-18.644 29.83,-32.731 59.098,-32.731c29.269,-0 53.688,14.087 59.099,32.731c-5.411,18.644 -29.83,32.731 -59.099,32.731c-29.268,0 -53.687,-14.087 -59.098,-32.731Z" style="fill:rgb(254,249,227);"/>
                <clipPath id="_clip5">
                    <path d="M783.686,644.659c5.411,-18.644 29.83,-32.731 59.098,-32.731c29.269,-0 53.688,14.087 59.099,32.731c-5.411,18.644 -29.83,32.731 -59.099,32.731c-29.268,0 -53.687,-14.087 -59.098,-32.731Z"/>
                </clipPath>
                <g clip-path="url(#_clip5)">
                    <g transform="matrix(0.985057,-0.224548,0.172226,1.28432,80.3436,-36.2578)">
                        <path d="M696.099,654.142c3.487,3.469 6.987,6.949 10.111,10.748c1.97,2.395 3.657,5.032 5.118,7.766c0.801,1.501 0.882,3.971 -1.528,4.321c-6.466,0.939 -13.016,1.276 -19.548,1.427c-10.001,0.23 -20.014,0.089 -30.011,-0.286c-10.321,-0.386 -20.625,-1.176 -30.92,-1.998c-15.749,-1.257 -28.063,-2.117 -34.618,-18.128c-1.41,-3.443 -4.085,-13.119 -3.073,-17.551c2.17,-9.497 24.837,-11.395 24.837,-11.395c-0,-0 12.904,11.826 21.118,15.106c18.476,7.376 38.651,11.249 58.514,9.99Z" style="fill:rgb(112,163,146);"/>
                    </g>
                </g>
                <path d="M783.686,644.659c5.411,-18.644 29.83,-32.731 59.098,-32.731c29.269,-0 53.688,14.087 59.099,32.731c-5.411,18.644 -29.83,32.731 -59.099,32.731c-29.268,0 -53.687,-14.087 -59.098,-32.731Z" style="fill:none;stroke:rgb(38,24,52);stroke-width:13.47px;stroke-linejoin:round;"/>
            </g>
        </g>
        <g>
            <circle cx="655.293" cy="728.544" r="11.509" style="fill:rgb(254,249,227);"/>
            <path d="M655.293,705.035c12.975,-0 23.509,10.534 23.509,23.509c-0,12.974 -10.534,23.508 -23.509,23.508c-12.975,0 -23.508,-10.534 -23.508,-23.508c-0,-12.975 10.533,-23.509 23.508,-23.509Zm0,12c-6.352,-0 -11.508,5.157 -11.508,11.509c-0,6.352 5.156,11.508 11.508,11.508c6.352,0 11.509,-5.156 11.509,-11.508c-0,-6.352 -5.157,-11.509 -11.509,-11.509Z" style="fill:rgb(38,24,52);"/>
            <g transform="matrix(0.761905,0,0,0.761905,193.676,147.998)">
                <circle cx="655.293" cy="728.544" r="11.509" style="fill:rgb(254,249,227);"/>
                <clipPath id="_clip6">
                    <circle cx="655.293" cy="728.544" r="11.509"/>
                </clipPath>
                <g clip-path="url(#_clip6)">
                    <g transform="matrix(1,0,0,1,-7.46377,2.6516)">
                        <circle cx="655.293" cy="728.544" r="11.509" style="fill:rgb(112,163,146);"/>
                    </g>
                </g>
                <path d="M655.293,701.285c15.045,-0 27.259,12.214 27.259,27.259c-0,15.044 -12.214,27.258 -27.259,27.258c-15.044,0 -27.258,-12.214 -27.258,-27.258c-0,-15.045 12.214,-27.259 27.258,-27.259Zm0,15.75c-6.352,-0 -11.508,5.157 -11.508,11.509c-0,6.352 5.156,11.508 11.508,11.508c6.352,0 11.509,-5.156 11.509,-11.508c-0,-6.352 -5.157,-11.509 -11.509,-11.509Z" style="fill:rgb(38,24,52);"/>
            </g>
            <g transform="matrix(0.590476,0,0,0.590476,341.471,-37.0319)">
                <circle cx="655.293" cy="728.544" r="11.509" style="fill:rgb(254,249,227);"/>
                <path d="M655.293,696.712c17.568,0 31.831,14.264 31.831,31.832c0,17.568 -14.263,31.831 -31.831,31.831c-17.568,-0 -31.831,-14.263 -31.831,-31.831c-0,-17.568 14.263,-31.832 31.831,-31.832Zm0,20.323c-6.352,-0 -11.508,5.157 -11.508,11.509c-0,6.352 5.156,11.508 11.508,11.508c6.352,0 11.509,-5.156 11.509,-11.508c-0,-6.352 -5.157,-11.509 -11.509,-11.509Z" style="fill:rgb(38,24,52);"/>
            </g>
            <g transform="matrix(1.08571,0,0,1.08571,-21.6655,-368.195)">
                <circle cx="655.293" cy="728.544" r="11.509" style="fill:rgb(112,163,146);"/>
                <clipPath id="_clip7">
                    <circle cx="655.293" cy="728.544" r="11.509"/>
                </clipPath>
                <g clip-path="url(#_clip7)">
                    <g transform="matrix(1,0,0,1,-6.46914,0)">
                        <circle cx="655.293" cy="728.544" r="11.509" style="fill:rgb(254,249,227);"/>
                    </g>
                </g>
                <path d="M655.293,705.982c12.452,0 22.562,10.11 22.562,22.562c-0,12.452 -10.11,22.561 -22.562,22.561c-12.452,0 -22.561,-10.109 -22.561,-22.561c-0,-12.452 10.109,-22.562 22.561,-22.562Zm0,11.053c-6.352,-0 -11.508,5.157 -11.508,11.509c-0,6.352 5.156,11.508 11.508,11.508c6.352,0 11.509,-5.156 11.509,-11.508c-0,-6.352 -5.157,-11.509 -11.509,-11.509Z" style="fill:rgb(38,24,52);"/>
            </g>
            <g transform="matrix(0.533333,0,0,0.533333,381.255,37.7734)">
                <circle cx="655.293" cy="728.544" r="11.509" style="fill:rgb(254,249,227);"/>
                <path d="M655.293,694.535c18.77,-0 34.009,15.239 34.009,34.009c-0,18.77 -15.239,34.008 -34.009,34.008c-18.77,0 -34.008,-15.238 -34.008,-34.008c-0,-18.77 15.238,-34.009 34.008,-34.009Zm0,22.5c-6.352,-0 -11.508,5.157 -11.508,11.509c-0,6.352 5.156,11.508 11.508,11.508c6.352,0 11.509,-5.156 11.509,-11.508c-0,-6.352 -5.157,-11.509 -11.509,-11.509Z" style="fill:rgb(38,24,52);"/>
            </g>
        </g>
    </g>
    <g transform="matrix(-1,0,0,1,906.739,-126.279)">
        <g>
            <g transform="matrix(1,0,0,1,-10.3603,-1.57583)">
                <path d="M645.123,597.003c-3.291,-3.251 -6.183,-6.99 -8.561,-11.221c-24.561,-43.711 2.819,-97.089 44.633,-117.449c19.953,-9.715 41.246,-12.389 63.096,-9.419c18.133,2.464 35.59,12.848 48.638,25.28c-13.831,12.947 -24.52,29.109 -30.539,47.103c-2.07,6.188 -3.842,12.48 -5.684,18.724l-61.12,-0l-50.463,46.982Z" style="fill:rgb(112,163,146);"/>
                <clipPath id="_clip8">
                    <path d="M645.123,597.003c-3.291,-3.251 -6.183,-6.99 -8.561,-11.221c-24.561,-43.711 2.819,-97.089 44.633,-117.449c19.953,-9.715 41.246,-12.389 63.096,-9.419c18.133,2.464 35.59,12.848 48.638,25.28c-13.831,12.947 -24.52,29.109 -30.539,47.103c-2.07,6.188 -3.842,12.48 -5.684,18.724l-61.12,-0l-50.463,46.982Z"/>
                </clipPath>
                <g clip-path="url(#_clip8)">
                    <g transform="matrix(1,0,1.38778e-16,1,10.3603,1.57583)">
                        <path d="M630.449,563.374c-0.8,-17.666 2.106,-36.548 12.19,-51.495c24.145,-35.787 76.806,-53.669 115.114,-29.568c6.473,-0.622 17.889,0.532 22.502,-6.203c3.005,-4.386 -4.771,-11.051 -6.732,-13.094c-8.516,-8.873 -17.674,-20.192 -30.281,-23.678c-16.696,-4.617 -33.262,0.137 -49.485,4.384c-24.018,6.287 -54.745,12.615 -70.551,34.349c-4.827,6.637 -8.623,15.051 -11.078,22.838c-2.491,7.902 -4.472,16.888 -1.681,25.058c6.079,17.793 9.203,17.305 20.002,37.409Z" style="fill:rgb(254,249,227);"/>
                    </g>
                    <g transform="matrix(1,0,0,1,10.3603,1.57583)">
                        <path d="M667,563.374c-0.357,-15.624 1.177,-24.487 5.169,-32.52c4.416,-8.785 7.831,-14.854 18.831,-19.854c2.832,3.598 5.228,7.78 3.467,12.51c-1.221,3.28 -3.431,6.14 -4.587,9.443c-0.334,0.952 -0.779,2.911 0.225,3.019c1.602,0.173 2.86,-1.53 4.105,-2.553c2.31,-1.898 4.304,-4.152 6.51,-6.17c5.927,-5.423 11.679,-11.055 17.889,-16.152c18.341,-15.055 41.474,-26.167 65.636,-26.222c2.066,6.784 5.357,17.955 5.598,25.115c0.253,7.517 -2.001,14.869 -5.527,21.41c-1.827,3.39 -3.981,6.644 -6.531,9.53c-20.113,22.75 -51.026,5.444 -76.028,6.067c-15.692,0.391 -19.928,13.262 -34.757,16.377Z" style="fill:rgb(87,111,111);"/>
                    </g>
                </g>
                <path d="M645.123,597.003c-3.291,-3.251 -6.183,-6.99 -8.561,-11.221c-24.561,-43.711 2.819,-97.089 44.633,-117.449c19.953,-9.715 41.246,-12.389 63.096,-9.419c18.133,2.464 35.59,12.848 48.638,25.28c-13.831,12.947 -24.52,29.109 -30.539,47.103c-2.07,6.188 -3.842,12.48 -5.684,18.724l-61.12,-0l-50.463,46.982Z" style="fill:none;stroke:rgb(38,24,52);stroke-width:12px;stroke-linejoin:round;"/>
            </g>
            <g transform="matrix(1,0,0,1,-10.3603,-1.57583)">
                <path d="M756.706,550.021c-4.535,15.375 -9.496,30.454 -20.386,42.96c-22.242,25.544 -67.275,27.651 -91.197,4.022l50.463,-46.982l61.12,-0Z" style="fill:rgb(254,249,227);stroke:rgb(38,24,52);stroke-width:12px;stroke-linejoin:round;"/>
            </g>
            <g>
                <path d="M632,598l87,-81" style="fill:none;stroke:rgb(38,24,52);stroke-width:12px;stroke-linecap:round;stroke-linejoin:round;"/>
                <path d="M745.056,548.445l-61.155,-0l8.677,-31.969" style="fill:none;stroke:rgb(38,24,52);stroke-width:12px;stroke-linecap:round;stroke-linejoin:round;"/>
            </g>
            <path d="M620.196,598.764c-3.823,-6.803 -7.671,-13.602 -11.103,-20.61c-11.988,-24.48 -4.953,-47.359 2.517,-72.19c-16.262,20.068 -32.368,45.75 -26.818,72.876c1.919,9.378 5.234,17.144 10.012,25.404l-52.333,58.231l10.047,10.047l67.678,-73.758Z" style="fill:rgb(254,249,227);"/>
            <path d="M630.657,592.885c-3.712,-6.605 -7.454,-13.204 -10.787,-20.009c-10.545,-21.533 -3.339,-41.614 3.231,-63.456c1.652,-5.49 -0.811,-11.382 -5.88,-14.064c-5.068,-2.681 -11.324,-1.402 -14.934,3.053c-18.397,22.703 -35.53,52.149 -29.251,82.836c1.581,7.728 3.97,14.506 7.228,21.225l-46.718,51.984c-4.264,4.744 -4.071,11.995 0.44,16.506l10.047,10.047c2.314,2.314 5.472,3.583 8.743,3.512c3.271,-0.07 6.372,-1.473 8.584,-3.884l67.678,-73.758c3.508,-3.823 4.161,-9.468 1.619,-13.992Zm-10.461,5.879l-67.678,73.758l-10.047,-10.047l52.333,-58.231c-4.778,-8.26 -8.093,-16.026 -10.012,-25.404c-5.55,-27.126 10.556,-52.808 26.818,-72.876c-7.47,24.831 -14.505,47.71 -2.517,72.19c3.432,7.008 7.28,13.807 11.103,20.61Z" style="fill:rgb(38,24,52);"/>
            <g transform="matrix(0.985057,0.172226,-0.132096,0.755528,-83.9326,13.5565)">
                <path d="M783.686,644.659c5.411,-18.644 29.83,-32.731 59.098,-32.731c29.269,-0 53.688,14.087 59.099,32.731c-5.411,18.644 -29.83,32.731 -59.099,32.731c-29.268,0 -53.687,-14.087 -59.098,-32.731Z" style="fill:rgb(254,249,227);"/>
                <clipPath id="_clip9">
                    <path d="M783.686,644.659c5.411,-18.644 29.83,-32.731 59.098,-32.731c29.269,-0 53.688,14.087 59.099,32.731c-5.411,18.644 -29.83,32.731 -59.099,32.731c-29.268,0 -53.687,-14.087 -59.098,-32.731Z"/>
                </clipPath>
                <g clip-path="url(#_clip9)">
                    <g transform="matrix(0.985057,-0.224548,0.172226,1.28432,80.3436,-36.2578)">
                        <path d="M696.099,654.142c3.487,3.469 6.987,6.949 10.111,10.748c1.97,2.395 3.657,5.032 5.118,7.766c0.801,1.501 0.882,3.971 -1.528,4.321c-6.466,0.939 -13.016,1.276 -19.548,1.427c-10.001,0.23 -20.014,0.089 -30.011,-0.286c-10.321,-0.386 -20.625,-1.176 -30.92,-1.998c-15.749,-1.257 -28.063,-2.117 -34.618,-18.128c-1.41,-3.443 -4.085,-13.119 -3.073,-17.551c2.17,-9.497 24.837,-11.395 24.837,-11.395c-0,-0 12.904,11.826 21.118,15.106c18.476,7.376 38.651,11.249 58.514,9.99Z" style="fill:rgb(112,163,146);"/>
                    </g>
                </g>
                <path d="M783.686,644.659c5.411,-18.644 29.83,-32.731 59.098,-32.731c29.269,-0 53.688,14.087 59.099,32.731c-5.411,18.644 -29.83,32.731 -59.099,32.731c-29.268,0 -53.687,-14.087 -59.098,-32.731Z" style="fill:none;stroke:rgb(38,24,52);stroke-width:13.47px;stroke-linejoin:round;"/>
            </g>
        </g>
        <g>
            <circle cx="655.293" cy="728.544" r="11.509" style="fill:rgb(254,249,227);"/>
            <path d="M655.293,705.035c-12.975,-0 -23.508,10.534 -23.508,23.509c-0,12.974 10.533,23.508 23.508,23.508c12.975,0 23.509,-10.534 23.509,-23.508c-0,-12.975 -10.534,-23.509 -23.509,-23.509Zm0,12c6.352,-0 11.509,5.157 11.509,11.509c-0,6.352 -5.157,11.508 -11.509,11.508c-6.352,0 -11.508,-5.156 -11.508,-11.508c-0,-6.352 5.156,-11.509 11.508,-11.509Z" style="fill:rgb(38,24,52);"/>
            <g transform="matrix(0.761905,0,0,0.761905,193.676,147.998)">
                <circle cx="655.293" cy="728.544" r="11.509" style="fill:rgb(254,249,227);"/>
                <clipPath id="_clip10">
                    <circle cx="655.293" cy="728.544" r="11.509"/>
                </clipPath>
                <g clip-path="url(#_clip10)">
                    <g transform="matrix(1,0,0,1,-7.46377,2.6516)">
                        <circle cx="655.293" cy="728.544" r="11.509" style="fill:rgb(112,163,146);"/>
                    </g>
                </g>
                <path d="M655.293,701.285c-15.044,-0 -27.258,12.214 -27.258,27.259c-0,15.044 12.214,27.258 27.258,27.258c15.045,0 27.259,-12.214 27.259,-27.258c-0,-15.045 -12.214,-27.259 -27.259,-27.259Zm0,15.75c6.352,-0 11.509,5.157 11.509,11.509c-0,6.352 -5.157,11.508 -11.509,11.508c-6.352,0 -11.508,-5.156 -11.508,-11.508c-0,-6.352 5.156,-11.509 11.508,-11.509Z" style="fill:rgb(38,24,52);"/>
            </g>
            <g transform="matrix(0.590476,0,0,0.590476,341.471,-37.0319)">
                <circle cx="655.293" cy="728.544" r="11.509" style="fill:rgb(254,249,227);"/>
                <path d="M655.293,696.712c-17.568,0 -31.831,14.264 -31.831,31.832c-0,17.568 14.263,31.831 31.831,31.831c17.568,-0 31.831,-14.263 31.831,-31.831c0,-17.568 -14.263,-31.832 -31.831,-31.832Zm0,20.323c6.352,-0 11.509,5.157 11.509,11.509c-0,6.352 -5.157,11.508 -11.509,11.508c-6.352,0 -11.508,-5.156 -11.508,-11.508c-0,-6.352 5.156,-11.509 11.508,-11.509Z" style="fill:rgb(38,24,52);"/>
            </g>
            <g transform="matrix(1.08571,0,0,1.08571,-21.6655,-368.195)">
                <circle cx="655.293" cy="728.544" r="11.509" style="fill:rgb(112,163,146);"/>
                <clipPath id="_clip11">
                    <circle cx="655.293" cy="728.544" r="11.509"/>
                </clipPath>
                <g clip-path="url(#_clip11)">
                    <g transform="matrix(1,0,0,1,-6.46914,0)">
                        <circle cx="655.293" cy="728.544" r="11.509" style="fill:rgb(254,249,227);"/>
                    </g>
                </g>
                <path d="M655.293,705.982c-12.452,0 -22.561,10.11 -22.561,22.562c-0,12.452 10.109,22.561 22.561,22.561c12.452,0 22.562,-10.109 22.562,-22.561c-0,-12.452 -10.11,-22.562 -22.562,-22.562Zm0,11.053c6.352,-0 11.509,5.157 11.509,11.509c-0,6.352 -5.157,11.508 -11.509,11.508c-6.352,0 -11.508,-5.156 -11.508,-11.508c-0,-6.352 5.156,-11.509 11.508,-11.509Z" style="fill:rgb(38,24,52);"/>
            </g>
            <g transform="matrix(0.533333,0,0,0.533333,381.255,37.7734)">
                <circle cx="655.293" cy="728.544" r="11.509" style="fill:rgb(254,249,227);"/>
                <path d="M655.293,694.535c-18.77,-0 -34.008,15.239 -34.008,34.009c-0,18.77 15.238,34.008 34.008,34.008c18.77,0 34.009,-15.238 34.009,-34.008c-0,-18.77 -15.239,-34.009 -34.009,-34.009Zm0,22.5c6.352,-0 11.509,5.157 11.509,11.509c-0,6.352 -5.157,11.508 -11.509,11.508c-6.352,0 -11.508,-5.156 -11.508,-11.508c-0,-6.352 5.156,-11.509 11.508,-11.509Z" style="fill:rgb(38,24,52);"/>
            </g>
        </g>
    </g>
    <path d="M432.87,349.96l8.314,-0c16.148,-0 16.663,-34.777 -0,-34.777l-68.89,0c-16.663,0 -16.149,34.777 -0,34.777l8.323,-0l0.005,-11.319l0,158.745l-102.28,148.01l256.794,-0l-102.281,-148.01l0,-158.745l0.015,11.319Z" style="fill:rgb(254,249,227);"/>
    <clipPath id="_clip12">
        <path d="M432.87,349.96l8.314,-0c16.148,-0 16.663,-34.777 -0,-34.777l-68.89,0c-16.663,0 -16.149,34.777 -0,34.777l8.323,-0l0.005,-11.319l0,158.745l-102.28,148.01l256.794,-0l-102.281,-148.01l0,-158.745l0.015,11.319Z"/>
    </clipPath>
    <g clip-path="url(#_clip12)">
        <g transform="matrix(1,0,0,1,-93.2614,-47.2614)">
            <path d="M371.603,691.468l64.198,-97.963l145.532,-0l47.064,97.963l-256.794,1.189" style="fill:rgb(252,183,19);"/>
        </g>
        <g transform="matrix(1,0,0,1,-93.2614,-47.2614)">
            <path d="M409.988,691.468l90.012,-124.721l0,-202.486l-47,0l0,211l-80.588,116.23l37.576,-0.023Z" style="fill:rgb(254,208,70);"/>
            <clipPath id="_clip13">
                <path d="M409.988,691.468l90.012,-124.721l0,-202.486l-47,0l0,211l-80.588,116.23l37.576,-0.023Z"/>
            </clipPath>
            <g clip-path="url(#_clip13)">
                <path d="M371.603,691.468l64.198,-97.963l145.532,-0l47.064,97.963l-256.794,1.189" style="fill:rgb(204,120,2);"/>
            </g>
        </g>
    </g>
    <path d="M432.87,349.96l8.314,-0c16.148,-0 16.663,-34.777 -0,-34.777l-68.89,0c-16.663,0 -16.149,34.777 -0,34.777l8.323,-0l0.005,-11.319l0,158.745l-102.28,148.01l256.794,-0l-102.281,-148.01l0,-158.745l0.015,11.319Z" style="fill:none;stroke:rgb(38,24,52);stroke-width:12px;stroke-linecap:round;stroke-linejoin:round;"/>
</svg>
